<svg xmlns="http://www.w3.org/2000/svg" viewBox="0 0 512 512">
  <rect width="512" height="512" fill="#0c0b09"/>
  <g>
    <path d="M256,256 L256.00,66.00 A190,190 0 0,1 351.00,91.46 Z" fill="#E1362D"/>
    <path d="M256,256 L351.00,91.46 A190,190 0 0,1 420.54,161.00 Z" fill="#E85A2B"/>
    <path d="M256,256 L420.54,161.00 A190,190 0 0,1 446.00,256.00 Z" fill="#EF8B1D"/>
    <path d="M256,256 L446.00,256.00 A190,190 0 0,1 420.54,351.00 Z" fill="#F4B429"/>
    <path d="M256,256 L420.54,351.00 A190,190 0 0,1 351.00,420.54 Z" fill="#F2D33B"/>
    <path d="M256,256 L351.00,420.54 A190,190 0 0,1 256.00,446.00 Z" fill="#A8C43D"/>
    <path d="M256,256 L256.00,446.00 A190,190 0 0,1 161.00,420.54 Z" fill="#4B9D5F"/>
    <path d="M256,256 L161.00,420.54 A190,190 0 0,1 91.46,351.00 Z" fill="#2E9C8F"/>
    <path d="M256,256 L91.46,351.00 A190,190 0 0,1 66.00,256.00 Z" fill="#2A5C99"/>
    <path d="M256,256 L66.00,256.00 A190,190 0 0,1 91.46,161.00 Z" fill="#4F4E9C"/>
    <path d="M256,256 L91.46,161.00 A190,190 0 0,1 161.00,91.46 Z" fill="#7C4A9E"/>
    <path d="M256,256 L161.00,91.46 A190,190 0 0,1 256.00,66.00 Z" fill="#B23A72"/>
  </g>
  <circle cx="256" cy="256" r="190" fill="none" stroke="#C98A3E" stroke-width="4"/>
  <circle cx="256" cy="256" r="10" fill="#C98A3E"/>
</svg>
